<mxfile host="app.diagrams.net" modified="2023-03-26T19:01:48.223Z" agent="Mozilla/5.0 (Windows NT 10.0; Win64; x64) AppleWebKit/537.36 (KHTML, like Gecko) Chrome/111.0.0.0 Safari/537.36" etag="5uWzd2zMW1SosbOJQJP-" version="21.1.1" type="device">
  <diagram name="Page-1" id="JCEGxdFOgvOAtDUVBZYm">
    <mxGraphModel dx="687" dy="767" grid="1" gridSize="10" guides="1" tooltips="1" connect="1" arrows="1" fold="1" page="1" pageScale="1" pageWidth="850" pageHeight="1100" math="0" shadow="0">
      <root>
        <mxCell id="0" />
        <mxCell id="1" parent="0" />
        <mxCell id="HDsGMQWWcjxy8k_yasPS-3" value="Start&lt;br&gt;&lt;b&gt;/api/address-book/{id}&lt;/b&gt;" style="strokeWidth=2;html=1;shape=mxgraph.flowchart.start_2;whiteSpace=wrap;fontSize=16;" parent="1" vertex="1">
          <mxGeometry x="357" y="160" width="190" height="80" as="geometry" />
        </mxCell>
        <mxCell id="HDsGMQWWcjxy8k_yasPS-5" value="&lt;b&gt;Delete Address Book API&lt;/b&gt;" style="text;html=1;strokeColor=none;fillColor=none;align=center;verticalAlign=middle;whiteSpace=wrap;rounded=0;fontSize=16;" parent="1" vertex="1">
          <mxGeometry x="356.5" y="60" width="195" height="30" as="geometry" />
        </mxCell>
        <mxCell id="StWOmSBMssW9FRGtLw7N-37" value="&lt;b&gt;is &lt;br&gt;authorized?&lt;/b&gt;" style="rhombus;whiteSpace=wrap;html=1;" parent="1" vertex="1">
          <mxGeometry x="394.5" y="320" width="117.5" height="90" as="geometry" />
        </mxCell>
        <mxCell id="StWOmSBMssW9FRGtLw7N-38" value="&lt;b&gt;User input&lt;/b&gt;&lt;br&gt;ID of the address &lt;br&gt;book to delete&lt;b&gt;&amp;nbsp;&lt;/b&gt;&lt;br&gt;id: UUID" style="shape=parallelogram;html=1;strokeWidth=2;perimeter=parallelogramPerimeter;whiteSpace=wrap;rounded=1;arcSize=12;size=0.23;" parent="1" vertex="1">
          <mxGeometry x="365.25" y="467" width="177.5" height="70" as="geometry" />
        </mxCell>
        <mxCell id="StWOmSBMssW9FRGtLw7N-39" value="&lt;b&gt;Response code: 401&lt;/b&gt;&lt;br&gt;Unauthorized user" style="rounded=1;whiteSpace=wrap;html=1;absoluteArcSize=1;arcSize=14;strokeWidth=2;" parent="1" vertex="1">
          <mxGeometry x="700" y="330" width="120" height="70" as="geometry" />
        </mxCell>
        <mxCell id="StWOmSBMssW9FRGtLw7N-40" value="&lt;b&gt;Validate&lt;/b&gt;&amp;nbsp;&lt;br&gt;is the address &lt;br&gt;book exists?" style="strokeWidth=2;html=1;shape=mxgraph.flowchart.decision;whiteSpace=wrap;" parent="1" vertex="1">
          <mxGeometry x="399" y="590" width="110" height="100" as="geometry" />
        </mxCell>
        <mxCell id="StWOmSBMssW9FRGtLw7N-41" value="&lt;b&gt;Response code: 404&lt;/b&gt;&lt;br&gt;Address book &lt;br&gt;Not found" style="rounded=1;whiteSpace=wrap;html=1;absoluteArcSize=1;arcSize=14;strokeWidth=2;" parent="1" vertex="1">
          <mxGeometry x="574" y="613" width="126" height="55" as="geometry" />
        </mxCell>
        <mxCell id="StWOmSBMssW9FRGtLw7N-42" value="&lt;b&gt;Path&lt;/b&gt;&lt;br&gt;Proceed to delete the selected address book from the database" style="rounded=1;whiteSpace=wrap;html=1;absoluteArcSize=1;arcSize=14;strokeWidth=2;" parent="1" vertex="1">
          <mxGeometry x="102" y="611" width="170" height="60" as="geometry" />
        </mxCell>
        <mxCell id="StWOmSBMssW9FRGtLw7N-43" value="&lt;span&gt;Response code: 200&lt;br&gt;&lt;span style=&quot;font-weight: normal;&quot;&gt;Address book deleted successfully&lt;/span&gt;&lt;br&gt;&lt;/span&gt;" style="rounded=1;whiteSpace=wrap;html=1;absoluteArcSize=1;arcSize=14;strokeWidth=2;fontStyle=1" parent="1" vertex="1">
          <mxGeometry x="102" y="741" width="196" height="62" as="geometry" />
        </mxCell>
        <mxCell id="StWOmSBMssW9FRGtLw7N-45" value="" style="endArrow=classic;html=1;rounded=0;exitX=0.5;exitY=1;exitDx=0;exitDy=0;exitPerimeter=0;entryX=0.5;entryY=0;entryDx=0;entryDy=0;" parent="1" source="HDsGMQWWcjxy8k_yasPS-3" target="StWOmSBMssW9FRGtLw7N-37" edge="1">
          <mxGeometry width="50" height="50" relative="1" as="geometry">
            <mxPoint x="453" y="250" as="sourcePoint" />
            <mxPoint x="437" y="460" as="targetPoint" />
          </mxGeometry>
        </mxCell>
        <mxCell id="StWOmSBMssW9FRGtLw7N-46" value="" style="endArrow=classic;html=1;rounded=0;exitX=0.5;exitY=1;exitDx=0;exitDy=0;entryX=0.5;entryY=0;entryDx=0;entryDy=0;" parent="1" source="StWOmSBMssW9FRGtLw7N-37" target="StWOmSBMssW9FRGtLw7N-38" edge="1">
          <mxGeometry width="50" height="50" relative="1" as="geometry">
            <mxPoint x="387" y="510" as="sourcePoint" />
            <mxPoint x="437" y="460" as="targetPoint" />
          </mxGeometry>
        </mxCell>
        <mxCell id="StWOmSBMssW9FRGtLw7N-47" value="" style="endArrow=classic;html=1;rounded=0;exitX=0.5;exitY=1;exitDx=0;exitDy=0;entryX=0.5;entryY=0;entryDx=0;entryDy=0;entryPerimeter=0;" parent="1" source="StWOmSBMssW9FRGtLw7N-38" target="StWOmSBMssW9FRGtLw7N-40" edge="1">
          <mxGeometry width="50" height="50" relative="1" as="geometry">
            <mxPoint x="387" y="510" as="sourcePoint" />
            <mxPoint x="437" y="460" as="targetPoint" />
          </mxGeometry>
        </mxCell>
        <mxCell id="StWOmSBMssW9FRGtLw7N-48" value="" style="endArrow=classic;html=1;rounded=0;exitX=0;exitY=0.5;exitDx=0;exitDy=0;exitPerimeter=0;entryX=1;entryY=0.5;entryDx=0;entryDy=0;" parent="1" source="StWOmSBMssW9FRGtLw7N-40" target="StWOmSBMssW9FRGtLw7N-42" edge="1">
          <mxGeometry width="50" height="50" relative="1" as="geometry">
            <mxPoint x="387" y="481" as="sourcePoint" />
            <mxPoint x="437" y="431" as="targetPoint" />
          </mxGeometry>
        </mxCell>
        <mxCell id="StWOmSBMssW9FRGtLw7N-49" value="" style="endArrow=classic;html=1;rounded=0;entryX=0.5;entryY=0;entryDx=0;entryDy=0;exitX=0.583;exitY=1.009;exitDx=0;exitDy=0;exitPerimeter=0;" parent="1" source="StWOmSBMssW9FRGtLw7N-42" target="StWOmSBMssW9FRGtLw7N-43" edge="1">
          <mxGeometry width="50" height="50" relative="1" as="geometry">
            <mxPoint x="200" y="671" as="sourcePoint" />
            <mxPoint x="280" y="521" as="targetPoint" />
          </mxGeometry>
        </mxCell>
        <mxCell id="StWOmSBMssW9FRGtLw7N-50" value="" style="endArrow=classic;html=1;rounded=0;exitX=0.5;exitY=1;exitDx=0;exitDy=0;entryX=0;entryY=0.5;entryDx=0;entryDy=0;entryPerimeter=0;edgeStyle=orthogonalEdgeStyle;" parent="1" source="StWOmSBMssW9FRGtLw7N-43" target="StWOmSBMssW9FRGtLw7N-59" edge="1">
          <mxGeometry width="50" height="50" relative="1" as="geometry">
            <mxPoint x="387" y="481" as="sourcePoint" />
            <mxPoint x="300" y="890" as="targetPoint" />
          </mxGeometry>
        </mxCell>
        <mxCell id="StWOmSBMssW9FRGtLw7N-51" value="" style="endArrow=classic;html=1;rounded=0;exitX=1;exitY=0.5;exitDx=0;exitDy=0;entryX=0;entryY=0.5;entryDx=0;entryDy=0;" parent="1" source="StWOmSBMssW9FRGtLw7N-37" target="StWOmSBMssW9FRGtLw7N-39" edge="1">
          <mxGeometry width="50" height="50" relative="1" as="geometry">
            <mxPoint x="387" y="510" as="sourcePoint" />
            <mxPoint x="437" y="460" as="targetPoint" />
          </mxGeometry>
        </mxCell>
        <mxCell id="StWOmSBMssW9FRGtLw7N-52" value="" style="endArrow=classic;html=1;rounded=0;exitX=1;exitY=0.5;exitDx=0;exitDy=0;exitPerimeter=0;entryX=0;entryY=0.5;entryDx=0;entryDy=0;" parent="1" source="StWOmSBMssW9FRGtLw7N-40" target="StWOmSBMssW9FRGtLw7N-41" edge="1">
          <mxGeometry width="50" height="50" relative="1" as="geometry">
            <mxPoint x="387" y="481" as="sourcePoint" />
            <mxPoint x="437" y="431" as="targetPoint" />
          </mxGeometry>
        </mxCell>
        <mxCell id="StWOmSBMssW9FRGtLw7N-53" value="Credentials&lt;br&gt;Not valid" style="text;html=1;strokeColor=none;fillColor=none;align=center;verticalAlign=middle;whiteSpace=wrap;rounded=0;" parent="1" vertex="1">
          <mxGeometry x="557" y="330" width="60" height="30" as="geometry" />
        </mxCell>
        <mxCell id="StWOmSBMssW9FRGtLw7N-54" value="Success" style="text;html=1;strokeColor=none;fillColor=none;align=center;verticalAlign=middle;whiteSpace=wrap;rounded=0;" parent="1" vertex="1">
          <mxGeometry x="452" y="420" width="60" height="30" as="geometry" />
        </mxCell>
        <mxCell id="StWOmSBMssW9FRGtLw7N-55" value="&lt;b&gt;Response code: 500&lt;/b&gt;&lt;br&gt;Internal server error" style="rounded=1;whiteSpace=wrap;html=1;absoluteArcSize=1;arcSize=14;strokeWidth=2;" parent="1" vertex="1">
          <mxGeometry x="36" y="330" width="124" height="70" as="geometry" />
        </mxCell>
        <mxCell id="StWOmSBMssW9FRGtLw7N-56" value="" style="endArrow=classic;html=1;rounded=0;exitX=0;exitY=0.5;exitDx=0;exitDy=0;entryX=1;entryY=0.5;entryDx=0;entryDy=0;" parent="1" source="StWOmSBMssW9FRGtLw7N-37" target="StWOmSBMssW9FRGtLw7N-55" edge="1">
          <mxGeometry width="50" height="50" relative="1" as="geometry">
            <mxPoint x="577" y="600" as="sourcePoint" />
            <mxPoint x="627" y="550" as="targetPoint" />
          </mxGeometry>
        </mxCell>
        <mxCell id="StWOmSBMssW9FRGtLw7N-57" value="" style="endArrow=classic;html=1;rounded=0;entryX=0;entryY=0.5;entryDx=0;entryDy=0;entryPerimeter=0;edgeStyle=elbowEdgeStyle;exitX=0.141;exitY=0.994;exitDx=0;exitDy=0;exitPerimeter=0;" parent="1" source="StWOmSBMssW9FRGtLw7N-55" target="StWOmSBMssW9FRGtLw7N-59" edge="1">
          <mxGeometry width="50" height="50" relative="1" as="geometry">
            <mxPoint x="52" y="410" as="sourcePoint" />
            <mxPoint x="52" y="770" as="targetPoint" />
            <Array as="points">
              <mxPoint x="52" y="650" />
            </Array>
          </mxGeometry>
        </mxCell>
        <mxCell id="StWOmSBMssW9FRGtLw7N-59" value="&lt;b&gt;Stop&lt;/b&gt;" style="strokeWidth=2;html=1;shape=mxgraph.flowchart.terminator;whiteSpace=wrap;" parent="1" vertex="1">
          <mxGeometry x="404" y="824" width="100" height="60" as="geometry" />
        </mxCell>
        <mxCell id="StWOmSBMssW9FRGtLw7N-60" value="" style="endArrow=classic;html=1;rounded=0;exitX=0.5;exitY=1;exitDx=0;exitDy=0;exitPerimeter=0;entryX=0.5;entryY=0;entryDx=0;entryDy=0;entryPerimeter=0;" parent="1" source="StWOmSBMssW9FRGtLw7N-62" edge="1">
          <mxGeometry width="50" height="50" relative="1" as="geometry">
            <mxPoint x="577" y="561" as="sourcePoint" />
            <mxPoint x="454.0000000000002" y="829" as="targetPoint" />
          </mxGeometry>
        </mxCell>
        <mxCell id="StWOmSBMssW9FRGtLw7N-61" value="" style="endArrow=classic;html=1;rounded=0;exitX=0.5;exitY=1;exitDx=0;exitDy=0;exitPerimeter=0;entryX=0.5;entryY=0;entryDx=0;entryDy=0;entryPerimeter=0;" parent="1" source="StWOmSBMssW9FRGtLw7N-40" target="StWOmSBMssW9FRGtLw7N-62" edge="1">
          <mxGeometry width="50" height="50" relative="1" as="geometry">
            <mxPoint x="454" y="690" as="sourcePoint" />
            <mxPoint x="454" y="829" as="targetPoint" />
          </mxGeometry>
        </mxCell>
        <mxCell id="StWOmSBMssW9FRGtLw7N-62" value="&lt;b&gt;Response code: 500&lt;/b&gt;&lt;br&gt;Internal server error" style="rounded=1;whiteSpace=wrap;html=1;absoluteArcSize=1;arcSize=14;strokeWidth=2;" parent="1" vertex="1">
          <mxGeometry x="394" y="726" width="120" height="60" as="geometry" />
        </mxCell>
        <mxCell id="StWOmSBMssW9FRGtLw7N-63" value="" style="endArrow=classic;html=1;rounded=0;exitX=0.5;exitY=1;exitDx=0;exitDy=0;entryX=1;entryY=0.5;entryDx=0;entryDy=0;entryPerimeter=0;edgeStyle=orthogonalEdgeStyle;" parent="1" source="StWOmSBMssW9FRGtLw7N-41" target="StWOmSBMssW9FRGtLw7N-59" edge="1">
          <mxGeometry width="50" height="50" relative="1" as="geometry">
            <mxPoint x="577" y="561" as="sourcePoint" />
            <mxPoint x="590" y="830" as="targetPoint" />
          </mxGeometry>
        </mxCell>
        <mxCell id="StWOmSBMssW9FRGtLw7N-66" value="" style="endArrow=classic;html=1;rounded=0;exitX=0.75;exitY=1;exitDx=0;exitDy=0;entryX=1;entryY=0.5;entryDx=0;entryDy=0;entryPerimeter=0;edgeStyle=orthogonalEdgeStyle;" parent="1" source="StWOmSBMssW9FRGtLw7N-39" target="StWOmSBMssW9FRGtLw7N-59" edge="1">
          <mxGeometry width="50" height="50" relative="1" as="geometry">
            <mxPoint x="567" y="600" as="sourcePoint" />
            <mxPoint x="617" y="550" as="targetPoint" />
          </mxGeometry>
        </mxCell>
        <mxCell id="StWOmSBMssW9FRGtLw7N-68" value="Success" style="text;html=1;strokeColor=none;fillColor=none;align=center;verticalAlign=middle;whiteSpace=wrap;rounded=0;" parent="1" vertex="1">
          <mxGeometry x="317" y="611" width="60" height="30" as="geometry" />
        </mxCell>
        <mxCell id="StWOmSBMssW9FRGtLw7N-69" value="Invalid address book id" style="text;html=1;strokeColor=none;fillColor=none;align=center;verticalAlign=middle;whiteSpace=wrap;rounded=0;" parent="1" vertex="1">
          <mxGeometry x="507" y="600" width="60" height="30" as="geometry" />
        </mxCell>
        <mxCell id="StWOmSBMssW9FRGtLw7N-70" value="Internal error" style="text;html=1;strokeColor=none;fillColor=none;align=center;verticalAlign=middle;whiteSpace=wrap;rounded=0;" parent="1" vertex="1">
          <mxGeometry x="247" y="330" width="60" height="30" as="geometry" />
        </mxCell>
        <mxCell id="StWOmSBMssW9FRGtLw7N-71" value="Internal errot" style="text;html=1;strokeColor=none;fillColor=none;align=center;verticalAlign=middle;whiteSpace=wrap;rounded=0;" parent="1" vertex="1">
          <mxGeometry x="382" y="690" width="60" height="30" as="geometry" />
        </mxCell>
        <mxCell id="StWOmSBMssW9FRGtLw7N-72" value="DELETE" style="text;html=1;strokeColor=none;fillColor=none;align=center;verticalAlign=middle;whiteSpace=wrap;rounded=0;" parent="1" vertex="1">
          <mxGeometry x="455.25" y="270" width="60" height="30" as="geometry" />
        </mxCell>
        <mxCell id="StWOmSBMssW9FRGtLw7N-73" value="Request with&lt;br&gt;JWT Access Token &amp;amp; ID of address book" style="text;html=1;strokeColor=none;fillColor=none;align=center;verticalAlign=middle;whiteSpace=wrap;rounded=0;" parent="1" vertex="1">
          <mxGeometry x="357" y="270" width="98.25" height="30" as="geometry" />
        </mxCell>
      </root>
    </mxGraphModel>
  </diagram>
</mxfile>
